<?xml version="1.0" standalone="no"?>
<!DOCTYPE svg PUBLIC "-//W3C//DTD SVG 20010904//EN"
 "http://www.w3.org/TR/2001/REC-SVG-20010904/DTD/svg10.dtd">
<svg version="1.0" xmlns="http://www.w3.org/2000/svg"
 width="64.000000pt" height="64.000000pt" viewBox="0 0 64.000000 64.000000"
 preserveAspectRatio="xMidYMid meet">

<g transform="translate(0.000000,64.000000) scale(0.100000,-0.100000)"
fill="#000000" stroke="none">
<path d="M127 629 c-23 -13 -47 -62 -47 -94 0 -34 25 -82 50 -95 18 -10 20
-21 20 -120 0 -99 -2 -110 -20 -120 -25 -13 -50 -61 -50 -95 0 -46 42 -105 74
-105 3 0 6 18 6 40 0 30 5 42 21 50 29 16 59 -12 59 -57 0 -39 9 -41 38 -10
46 49 45 122 -3 167 -24 22 -25 29 -25 131 0 98 2 109 21 122 29 21 49 83 38
120 -9 30 -45 77 -61 77 -4 0 -8 -17 -8 -38 0 -45 -28 -69 -60 -52 -15 8 -20
21 -20 50 0 42 -4 46 -33 29z m40 -94 c24 -16 28 -16 59 -1 26 12 34 22 34 43
0 25 1 26 16 11 32 -31 16 -116 -26 -138 -18 -10 -20 -21 -20 -128 l0 -117 30
-28 c36 -34 44 -93 17 -126 -10 -11 -13 -9 -17 9 -3 13 -18 32 -33 44 -26 19
-29 19 -55 4 -18 -11 -29 -28 -32 -49 -5 -30 -6 -31 -20 -14 -8 10 -15 38 -15
63 0 38 5 48 33 71 l32 27 0 114 0 114 -32 27 c-28 23 -33 33 -33 71 0 25 7
53 15 63 14 17 15 16 18 -13 2 -20 12 -36 29 -47z"/>
<path d="M190 320 c0 -53 4 -90 10 -90 6 0 10 37 10 90 0 53 -4 90 -10 90 -6
0 -10 -37 -10 -90z"/>
<path d="M436 599 c-5 -31 -3 -46 9 -59 12 -13 15 -42 15 -133 l0 -117 -34 0
c-19 0 -38 -4 -41 -10 -3 -5 1 -10 9 -10 14 0 16 -18 16 -119 0 -113 1 -121
22 -135 29 -21 51 -20 78 2 21 17 22 25 21 130 -1 92 1 113 14 118 25 10 6 24
-31 24 l-34 0 0 120 c0 98 3 122 15 126 15 6 19 42 9 82 -5 16 -14 22 -34 22
-24 0 -28 -4 -34 -41z m48 5 c11 -28 6 -54 -8 -54 -21 0 -28 15 -20 45 7 28
19 33 28 9z m26 -425 l0 -89 -40 0 -40 0 0 89 0 88 40 0 40 0 0 -88z m-2 -125
c-2 -9 -11 -22 -20 -28 -21 -13 -51 2 -56 28 -3 13 5 16 38 16 33 0 41 -3 38
-16z"/>
<path d="M440 175 c0 -37 4 -65 10 -65 6 0 10 28 10 65 0 37 -4 65 -10 65 -6
0 -10 -28 -10 -65z"/>
<path d="M480 175 c0 -37 4 -65 10 -65 6 0 10 28 10 65 0 37 -4 65 -10 65 -6
0 -10 -28 -10 -65z"/>
</g>
</svg>
