<?xml version="1.0" standalone="no"?>
<!DOCTYPE svg PUBLIC "-//W3C//DTD SVG 20010904//EN"
 "http://www.w3.org/TR/2001/REC-SVG-20010904/DTD/svg10.dtd">
<svg version="1.0" xmlns="http://www.w3.org/2000/svg"
 width="64.000000pt" height="64.000000pt" viewBox="0 0 64.000000 64.000000"
 preserveAspectRatio="xMidYMid meet">

<g transform="translate(0.000000,64.000000) scale(0.100000,-0.100000)"
fill="#000000" stroke="none">
<path d="M427 633 c-4 -3 -7 -77 -7 -163 0 -192 -4 -217 -36 -223 -18 -3 -24
0 -24 12 0 10 5 22 10 27 6 6 8 18 4 27 -5 15 -26 17 -159 17 -162 0 -176 -4
-157 -43 6 -12 14 -75 17 -140 5 -83 11 -122 22 -132 20 -20 493 -22 493 -2
-1 30 -38 184 -49 204 -6 13 -22 25 -35 29 -13 3 -27 15 -30 27 -3 12 -6 93
-6 179 0 86 -3 163 -6 172 -6 16 -26 21 -37 9z m20 -266 c-1 -45 -3 -5 -3 88
0 94 2 130 3 82 2 -48 2 -125 0 -170z m-154 -64 c-40 -2 -107 -2 -150 0 -43 1
-10 3 72 3 83 0 118 -2 78 -3z m33 -51 c-19 -37 -55 -52 -122 -52 -48 0 -60 4
-85 29 -16 16 -29 34 -29 40 0 7 42 11 125 11 l126 0 -15 -28z m129 8 c3 -5
-1 -10 -9 -10 -9 0 -16 5 -16 10 0 6 4 10 9 10 6 0 13 -4 16 -10z m73 -57 l14
-23 -96 0 c-77 0 -96 3 -96 15 0 24 32 35 99 32 53 -2 66 -6 79 -24z m-303
-21 c41 2 70 10 83 21 10 9 21 17 24 17 3 0 -5 -44 -17 -97 l-22 -98 -88 -3
c-48 -2 -92 1 -96 5 -4 4 -11 50 -15 101 l-7 93 37 -22 c30 -17 48 -21 101
-17z m134 -74 c-4 -29 -8 -61 -8 -70 -1 -11 -9 -18 -21 -18 -11 0 -18 5 -15
13 2 6 9 38 15 70 15 75 40 80 29 5z m51 20 c0 -61 -12 -108 -27 -108 -11 0
-13 12 -7 63 7 67 10 77 25 77 5 0 9 -15 9 -32z m50 -38 c0 -65 -2 -70 -21
-70 -20 0 -21 4 -15 53 3 28 6 60 6 70 0 9 7 17 15 17 12 0 15 -14 15 -70z
m44 24 c9 -72 8 -94 -8 -94 -11 0 -15 18 -18 70 -4 81 15 98 26 24z m45 9 c24
-95 24 -103 2 -103 -15 0 -21 6 -21 24 0 13 -3 44 -6 70 -8 57 11 64 25 9z"/>
<path d="M110 95 c0 -14 5 -25 10 -25 6 0 10 11 10 25 0 14 -4 25 -10 25 -5 0
-10 -11 -10 -25z"/>
</g>
</svg>
