<?xml version="1.0" standalone="no"?>
<!DOCTYPE svg PUBLIC "-//W3C//DTD SVG 20010904//EN"
 "http://www.w3.org/TR/2001/REC-SVG-20010904/DTD/svg10.dtd">
<svg version="1.0" xmlns="http://www.w3.org/2000/svg"
 width="64.000000pt" height="64.000000pt" viewBox="0 0 64.000000 64.000000"
 preserveAspectRatio="xMidYMid meet">

<g transform="translate(0.000000,64.000000) scale(0.100000,-0.100000)"
fill="#000000" stroke="none">
<path d="M257 519 c-35 -29 -37 -29 -37 -9 0 19 -5 21 -47 18 l-48 -3 -3 -57
c-3 -52 -6 -61 -37 -85 -44 -35 -50 -83 -10 -83 l25 0 0 -105 0 -105 140 0
c87 0 140 4 140 10 0 6 -48 10 -125 10 l-125 0 0 105 0 105 -25 0 c-35 0 -31
20 10 50 32 23 34 29 35 78 0 45 3 52 20 52 15 0 20 -7 20 -25 0 -34 17 -31
69 10 40 32 46 34 61 20 18 -16 40 -20 40 -7 0 11 -44 52 -56 52 -5 0 -26 -14
-47 -31z"/>
<path d="M401 496 c-34 -36 -39 -100 -12 -136 19 -26 21 -42 21 -150 l0 -120
70 0 70 0 0 121 c0 106 3 124 20 146 29 37 26 94 -6 132 -36 43 -52 40 -56
-11 -2 -35 -7 -44 -25 -46 -19 -3 -22 2 -25 40 -4 51 -23 60 -57 24z m79 -81
c44 0 45 1 48 33 3 28 6 31 18 21 21 -18 18 -82 -6 -104 -18 -16 -20 -31 -20
-137 l0 -118 -40 0 -40 0 0 118 c0 106 -2 121 -20 137 -23 21 -27 83 -7 104
10 10 13 6 17 -21 5 -32 7 -33 50 -33z"/>
<path d="M230 250 l0 -71 73 3 72 3 0 65 0 65 -72 3 -73 3 0 -71z m115 0 l0
-45 -42 -3 -43 -3 0 51 0 51 43 -3 42 -3 0 -45z"/>
</g>
</svg>
