<?xml version="1.0" standalone="no"?>
<!DOCTYPE svg PUBLIC "-//W3C//DTD SVG 20010904//EN"
 "http://www.w3.org/TR/2001/REC-SVG-20010904/DTD/svg10.dtd">
<svg version="1.0" xmlns="http://www.w3.org/2000/svg"
 width="64.000000pt" height="64.000000pt" viewBox="0 0 64.000000 64.000000"
 preserveAspectRatio="xMidYMid meet">

<g transform="translate(0.000000,64.000000) scale(0.100000,-0.100000)"
fill="#000000" stroke="none">
<path d="M267 594 c-4 -4 -7 -22 -7 -40 l0 -33 -57 -3 c-57 -3 -58 -3 -61 -35
-3 -32 -4 -32 -60 -35 l-57 -3 -3 -70 c-2 -38 -7 -74 -13 -79 -12 -13 -12
-143 1 -151 6 -3 10 -15 10 -26 0 -15 7 -19 31 -19 21 0 40 -9 55 -25 31 -33
77 -33 108 0 21 23 30 25 111 25 81 0 90 -2 111 -25 31 -33 77 -33 107 -1 14
15 37 26 57 28 l35 3 -4 90 c-3 75 -9 100 -35 155 l-32 65 -71 3 -72 3 -3 87
-3 87 -70 3 c-39 1 -74 0 -78 -4z m45 -46 c2 -17 10 -23 28 -23 18 0 26 6 28
23 2 12 10 22 18 22 11 0 14 -25 14 -135 l0 -135 -60 0 -60 0 0 135 c0 110 3
135 14 135 8 0 16 -10 18 -22z m38 12 c0 -5 -4 -10 -10 -10 -5 0 -10 5 -10 10
0 6 5 10 10 10 6 0 10 -4 10 -10z m-90 -116 l0 -44 -50 0 -50 0 0 44 0 44 50
0 50 0 0 -44z m-196 -39 c3 -8 15 -15 26 -15 11 0 23 7 26 15 13 33 24 12 24
-45 l0 -60 -50 0 -50 0 0 60 c0 57 11 78 24 45z m386 -64 c0 -64 21 -81 102
-81 l57 0 -1 -50 c0 -29 -4 -50 -11 -50 -6 0 -2 -7 9 -15 18 -14 18 -14 -10
-15 -18 0 -37 9 -52 25 -15 16 -34 25 -54 25 -20 0 -39 -9 -54 -25 -21 -23
-30 -25 -111 -25 -81 0 -90 2 -111 25 -28 31 -76 33 -104 5 -11 -11 -20 -24
-20 -30 0 -5 -11 -10 -25 -10 -28 0 -34 15 -9 24 20 8 9 26 -17 26 -16 0 -19
7 -19 50 l0 50 190 0 c183 0 190 -1 190 -20 0 -11 5 -20 10 -20 6 0 10 33 10
80 0 64 3 80 15 80 11 0 15 -12 15 -49z m128 4 c12 -25 22 -48 22 -51 0 -3
-28 -4 -62 -2 l-63 3 -3 48 -3 47 43 0 c42 0 45 -2 66 -45z m-374 13 c5 -10 7
-10 12 0 3 6 14 12 25 12 15 0 19 -7 19 -35 l0 -35 -50 0 -50 0 0 35 c0 28 4
35 19 35 11 0 22 -6 25 -12z m-6 -210 c15 -15 15 -51 0 -66 -15 -15 -61 -15
-76 0 -7 7 -12 21 -12 33 0 28 19 45 50 45 14 0 31 -5 38 -12z m330 0 c7 -7
12 -21 12 -33 0 -28 -19 -45 -50 -45 -31 0 -50 17 -50 45 0 28 19 45 50 45 14
0 31 -5 38 -12z"/>
<path d="M134 125 c-4 -9 -2 -21 4 -27 16 -16 47 -5 47 17 0 26 -42 34 -51 10z"/>
<path d="M464 125 c-4 -9 -2 -21 4 -27 16 -16 47 -5 47 17 0 26 -42 34 -51 10z"/>
</g>
</svg>
