<?xml version="1.0" encoding="UTF-8"?>
<svg version="1.1" xmlns="http://www.w3.org/2000/svg" width="64" height="64">
<path d="M0 0 C1.0209375 0.9590625 1.0209375 0.9590625 2.0625 1.9375 C5.46408839 4.3258493 7.90433701 4.67877153 12 5 C12.3125 7.25 12.3125 7.25 12 10 C9.43025001 12.71659284 7.94655411 13.91586186 4.1875 14.25 C3.465625 14.1675 2.74375 14.085 2 14 C2 14.66 2 15.32 2 16 C2.66 15.67 3.32 15.34 4 15 C6.6723621 14.86584528 9.32250488 14.95681459 12 15 C11.6875 18.375 11.6875 18.375 11 22 C7.5647952 24.29013653 6.014669 24.17842973 2 24 C2.18415432 26.94091587 2.18415432 26.94091587 3 30 C4.88370471 31.3169667 4.88370471 31.3169667 7 32 C7.66 32.66 8.32 33.32 9 34 C9.61875 33.34 10.2375 32.68 10.875 32 C13 30 13 30 15 30 C15.16435547 29.18208984 15.16435547 29.18208984 15.33203125 28.34765625 C16.20788722 24.18199979 17.19540222 20.07277325 18.4375 16 C18.66308594 15.2575 18.88867188 14.515 19.12109375 13.75 C20 12 20 12 23 11 C22.9175 9.9275 22.835 8.855 22.75 7.75 C23 4 23 4 24.4375 1.5625 C28.23964277 -0.75587974 31.66240478 -0.77201236 36 0 C38.5625 1.5625 38.5625 1.5625 40 4 C40.25 7.75 40.25 7.75 40 11 C40.99 11.33 41.98 11.66 43 12 C43.9140625 14.03125 43.9140625 14.03125 44.625 16.5 C45.34694531 19.51588079 45.34694531 19.51588079 47 22 C47.53203864 26.29991887 47.78021209 29.84413024 45.3125 33.5 C42.74444851 35.16576313 41.04589978 35.77155752 38 36 C36.68 35.67 35.36 35.34 34 35 C33.67 37.97 33.34 40.94 33 44 C34.258125 44.103125 35.51625 44.20625 36.8125 44.3125 C39.34134856 44.63808368 40.73692719 44.82461813 42.875 46.25 C44.25706758 48.3998829 45.11811392 50.60630922 46 53 C46.33 53.33 46.66 53.66 47 54 C47.27314815 59.73611111 47.27314815 59.73611111 47 62 C45 64 45 64 42.55758667 64.24050903 C41.01870285 64.2338472 41.01870285 64.2338472 39.44873047 64.22705078 C37.70715164 64.22682419 37.70715164 64.22682419 35.9303894 64.22659302 C34.67203278 64.21627045 33.41367615 64.20594788 32.1171875 64.1953125 C30.83264679 64.1924826 29.54810608 64.18965271 28.22463989 64.18673706 C24.80837233 64.17909809 21.39227463 64.15944752 17.97607422 64.1373291 C14.49058327 64.11687624 11.0050649 64.10773655 7.51953125 64.09765625 C0.67961769 64.07620175 -6.160183 64.04206271 -13 64 C-13 63.01 -13 62.02 -13 61 C-12.34 61 -11.68 61 -11 61 C-11 59.35 -11 57.7 -11 56 C-12.32 56 -13.64 56 -15 56 C-15 53.69 -15 51.38 -15 49 C-13.68 49 -12.36 49 -11 49 C-11 47.35 -11 45.7 -11 44 C-12.32 44 -13.64 44 -15 44 C-15 41.69 -15 39.38 -15 37 C-13.68 37 -12.36 37 -11 37 C-10.9175 36.21625 -10.835 35.4325 -10.75 34.625 C-10 32 -10 32 -7.9375 30.6875 C-7.298125 30.460625 -6.65875 30.23375 -6 30 C-4.68 31.32 -3.36 32.64 -2 34 C-1.67 32.35 -1.34 30.7 -1 29 C-1.9075 29.0825 -2.815 29.165 -3.75 29.25 C-7 29 -7 29 -9.375 27.3125 C-11.27258004 24.61209763 -11.35882213 23.22939919 -11 20 C-3.25 19.875 -3.25 19.875 -1 21 C-1 18.69 -1 16.38 -1 14 C-2.093125 13.896875 -3.18625 13.79375 -4.3125 13.6875 C-8 13 -8 13 -9.9375 11.75 C-11.35440053 9.41628148 -11.21718696 7.67863922 -11 5 C-9.39125 4.87625 -9.39125 4.87625 -7.75 4.75 C-3.7261549 3.94523098 -2.51830747 3.12270126 0 0 Z M27 4 C25.44145818 7.11708365 26.31215356 9.6858308 27 13 C26.0409375 13.2165625 26.0409375 13.2165625 25.0625 13.4375 C23.02454854 13.81007181 23.02454854 13.81007181 22 15 C21.95936168 16.66617115 21.957279 18.33388095 22 20 C22.66 20.33 23.32 20.66 24 21 C23.67 19.68 23.34 18.36 23 17 C23.78375 17.474375 24.5675 17.94875 25.375 18.4375 C26.88948678 19.33898023 28.4235897 20.21179485 30 21 C30 17.37 30 13.74 30 10 C29.01 9.67 28.02 9.34 27 9 C27.33 8.34 27.66 7.68 28 7 C29.9375 7.375 29.9375 7.375 32 8 C32.33 8.66 32.66 9.32 33 10 C33.66 10 34.32 10 35 10 C35.33 10.66 35.66 11.32 36 12 C36.33 11.67 36.66 11.34 37 11 C36.71269945 8.66055264 36.38063221 6.3260857 36 4 C31.40145723 2.87680587 31.40145723 2.87680587 27 4 Z M0 5 C-0.66 5.66 -1.32 6.32 -2 7 C-1.6814823 9.10820797 -1.6814823 9.10820797 -1 11 C0.32 10.67 1.64 10.34 3 10 C2.65213292 8.02463255 2.65213292 8.02463255 2 6 C1.34 5.67 0.68 5.34 0 5 Z M-7 8 C-7 8.66 -7 9.32 -7 10 C-6.34 10 -5.68 10 -5 10 C-5 9.34 -5 8.68 -5 8 C-5.66 8 -6.32 8 -7 8 Z M6 8 C6 8.66 6 9.32 6 10 C6.99 9.67 7.98 9.34 9 9 C8.01 8.67 7.02 8.34 6 8 Z M34 13 C33.67 14.32 33.34 15.64 33 17 C34.32 16.67 35.64 16.34 37 16 C37 18.31 37 20.62 37 23 C38.98 23.66 40.96 24.32 43 25 C42.67 25.66 42.34 26.32 42 27 C39.67843403 27.40729228 37.3431213 27.74438677 35 28 C35 28.99 35 29.98 35 31 C36.11166864 32.33187793 36.11166864 32.33187793 38.9375 32.1875 C42.10892859 32.33278733 42.10892859 32.33278733 44 30 C44.50508002 25.35326378 43.77925606 23.58987241 41 20 C40.9603287 18.33380554 40.95615553 16.66608987 41 15 C39.16116119 12.71271266 39.16116119 12.71271266 36.375 12.875 C35.199375 12.936875 35.199375 12.936875 34 13 Z M5 18 C4.01 19.485 4.01 19.485 3 21 C5.47266765 20.65555119 5.47266765 20.65555119 8 20 C8.33 19.34 8.66 18.68 9 18 C7.68 18 6.36 18 5 18 Z M33 21 C33 22.65 33 24.3 33 26 C34.32 25.01 35.64 24.02 37 23 C35.68 22.34 34.36 21.68 33 21 Z M21 22 C18.68436913 23.88500271 18.68436913 23.88500271 18.75 27 C18.68436913 30.11499729 18.68436913 30.11499729 21 32 C25.17268912 32.44416897 25.17268912 32.44416897 28.875 30.75 C30.36050506 28.78595012 30.36050506 28.78595012 30 25 C28.16715557 23.87483915 28.16715557 23.87483915 26 23 C25.01 23.33 24.02 23.66 23 24 C22.34 23.34 21.68 22.68 21 22 Z M-8 23 C-7.01 24.485 -7.01 24.485 -6 26 C-4.68 25.67 -3.36 25.34 -2 25 C-2.66 24.34 -3.32 23.68 -4 23 C-5.32 23 -6.64 23 -8 23 Z M19 34 C19 34.99 19 35.98 19 37 C20.32 37 21.64 37 23 37 C23 39.31 23 41.62 23 44 C21.68 44 20.36 44 19 44 C19.33 44.66 19.66 45.32 20 46 C23.35433109 45.05066101 26.69246505 44.10251165 30 43 C30 40.03 30 37.06 30 34 C28.9275 34.185625 27.855 34.37125 26.75 34.5625 C23.59608454 34.9304568 21.90181508 35.04465343 19 34 Z M-8 35 C-8 43.58 -8 52.16 -8 61 C-7.01 61 -6.02 61 -5 61 C-5 52.75 -5 44.5 -5 36 C-5.99 35.67 -6.98 35.34 -8 35 Z M3 35 C1.72694444 36.04871253 1.72694444 36.04871253 1.88647461 38.40844727 C1.89171143 39.45057373 1.89694824 40.4927002 1.90234375 41.56640625 C1.90556641 42.69111328 1.90878906 43.81582031 1.91210938 44.97460938 C1.92048828 46.15861328 1.92886719 47.34261719 1.9375 48.5625 C1.94201172 49.75037109 1.94652344 50.93824219 1.95117188 52.16210938 C1.96300325 55.10812226 1.97948713 58.05403681 2 61 C2.66 60.67 3.32 60.34 4 60 C3.9690625 58.7934375 3.9690625 58.7934375 3.9375 57.5625 C4 55 4 55 5 54 C5.08651611 52.58429877 5.10704904 51.164405 5.09765625 49.74609375 C5.09443359 48.89208984 5.09121094 48.03808594 5.08789062 47.15820312 C5.07951172 46.26037109 5.07113281 45.36253906 5.0625 44.4375 C5.05798828 43.53580078 5.05347656 42.63410156 5.04882812 41.70507812 C5.03700225 39.46998686 5.0205222 37.23502563 5 35 C4.34 35 3.68 35 3 35 Z M13 35 C11.71387324 36.05978933 11.71387324 36.05978933 11.90234375 38.50390625 C11.91394531 39.51324219 11.92554687 40.52257813 11.9375 41.5625 C11.94652344 42.57441406 11.95554687 43.58632813 11.96484375 44.62890625 C11.97644531 45.41136719 11.98804687 46.19382812 12 47 C13.32 47 14.64 47 16 47 C16 43.37 16 39.74 16 36 C15.01 35.67 14.02 35.34 13 35 Z M-2 44 C-2 45.65 -2 47.3 -2 49 C-1.67 49 -1.34 49 -1 49 C-1 47.35 -1 45.7 -1 44 C-1.33 44 -1.66 44 -2 44 Z M8 44 C8 46.31 8 48.62 8 51 C8.33 51 8.66 51 9 51 C9 48.69 9 46.38 9 44 C8.67 44 8.34 44 8 44 Z M29 46 C28.34 47.32 27.68 48.64 27 50 C26.01 50 25.02 50 24 50 C24 49.34 24 48.68 24 48 C23.01 48.33 22.02 48.66 21 49 C21.33 50.65 21.66 52.3 22 54 C19.00667261 53.0022242 18.05233685 52.2477975 16 50 C14.02 50.99 14.02 50.99 12 52 C12.99 52.66 13.98 53.32 15 54 C15.33 54.99 15.66 55.98 16 57 C15.01 57.33 14.02 57.66 13 58 C12.34 56.68 11.68 55.36 11 54 C9.68 54.33 8.36 54.66 7 55 C6.3185177 56.89179203 6.3185177 56.89179203 6 59 C7.93590209 61.37523595 7.93590209 61.37523595 11.43994141 61.22705078 C12.91051979 61.22673369 14.38112142 61.21540987 15.8515625 61.1953125 C17.01261002 61.19106766 17.01261002 61.19106766 18.19711304 61.18673706 C20.67323157 61.17552754 23.1489905 61.15042203 25.625 61.125 C27.30207812 61.11497118 28.97916189 61.10584516 30.65625 61.09765625 C34.77097223 61.07558574 38.88542511 61.04105102 43 61 C43.67958603 58.60280568 43.67958603 58.60280568 44 56 C43.34 55.34 42.68 54.68 42 54 C41.71125 53.154375 41.4225 52.30875 41.125 51.4375 C40.2590293 48.81552157 40.2590293 48.81552157 37.875 48.1875 C37.25625 48.125625 36.6375 48.06375 36 48 C35.34 49.32 34.68 50.64 34 52 C33.01 52 32.02 52 31 52 C31.33 50.02 31.66 48.04 32 46 C31.01 46 30.02 46 29 46 Z M-2 56 C-2 57.65 -2 59.3 -2 61 C-1.67 61 -1.34 61 -1 61 C-1 59.35 -1 57.7 -1 56 C-1.33 56 -1.66 56 -2 56 Z " fill="#000000" transform="translate(17,0)"/>
<path d="M0 0 C1.45792884 -0.05399736 2.91642712 -0.09279177 4.375 -0.125 C5.18710937 -0.14820313 5.99921875 -0.17140625 6.8359375 -0.1953125 C9 0 9 0 11 2 C11.125 4.625 11.125 4.625 11 7 C4.70786517 7.36300778 4.70786517 7.36300778 1.5625 5.75 C0 4 0 4 0 0 Z " fill="#000000" transform="translate(51,37)"/>
<path d="M0 0 C0.99 0 1.98 0 3 0 C3 0.99 3 1.98 3 3 C2.01 3 1.02 3 0 3 C0 2.01 0 1.02 0 0 Z " fill="#000000" transform="translate(0,61)"/>
</svg>
