<?xml version="1.0" standalone="no"?>
<!DOCTYPE svg PUBLIC "-//W3C//DTD SVG 20010904//EN"
 "http://www.w3.org/TR/2001/REC-SVG-20010904/DTD/svg10.dtd">
<svg version="1.0" xmlns="http://www.w3.org/2000/svg"
 width="64.000000pt" height="64.000000pt" viewBox="0 0 64.000000 64.000000"
 preserveAspectRatio="xMidYMid meet">

<g transform="translate(0.000000,64.000000) scale(0.100000,-0.100000)"
fill="#000000" stroke="none">
<path d="M350 620 c-8 -5 -25 -7 -38 -3 -21 5 -44 -15 -162 -132 -139 -139
-139 -139 -136 -182 1 -24 8 -49 14 -55 8 -8 12 -48 12 -113 0 -107 7 -125 46
-125 32 0 42 19 46 80 3 60 20 72 41 30 14 -29 41 -37 62 -20 12 10 15 40 15
134 l0 122 75 74 c75 74 86 95 63 118 -6 6 -8 15 -5 19 4 4 22 -7 39 -25 l32
-32 -25 -27 c-14 -16 -46 -51 -72 -80 -55 -61 -60 -95 -22 -141 14 -17 25 -40
25 -53 0 -26 165 -199 191 -199 19 0 79 61 79 80 0 8 -40 54 -88 103 -64 63
-95 87 -114 87 -14 0 -33 9 -43 20 -21 23 -30 8 78 127 63 69 63 99 3 159 -44
45 -82 56 -116 34z m101 -49 c22 -21 39 -48 39 -60 0 -12 -31 -56 -70 -100
-38 -44 -70 -85 -70 -92 0 -7 7 -21 17 -31 9 -10 13 -21 9 -26 -10 -10 -46 36
-46 59 0 16 104 148 130 164 19 12 10 41 -24 74 -28 27 -40 32 -60 27 -26 -6
-37 8 -13 17 30 13 52 4 88 -32z m-106 -11 l39 -40 -137 -138 -137 -137 -42
43 -43 42 135 135 c74 74 137 135 140 135 3 0 24 -18 45 -40z m-119 -437 c-8
-21 -26 -15 -36 12 -5 14 -17 28 -26 32 -32 12 -49 -11 -54 -73 -4 -51 -8 -59
-25 -59 -19 0 -20 8 -23 103 l-3 103 33 -6 c30 -6 38 -1 83 45 l50 51 3 -97
c1 -54 0 -104 -2 -111z m-171 147 c3 -5 1 -10 -4 -10 -6 0 -11 5 -11 10 0 6 2
10 4 10 3 0 8 -4 11 -10z m350 -30 c-10 -11 -20 -18 -23 -15 -7 6 18 35 31 35
5 0 2 -9 -8 -20z m55 2 c0 -14 -59 -66 -67 -59 -3 4 6 21 22 37 28 30 45 38
45 22z m70 -67 l44 -45 -32 -32 -32 -33 -47 47 -47 47 29 31 c16 16 31 30 35
30 3 0 26 -20 50 -45z m76 -76 c3 -6 -7 -25 -25 -42 -24 -25 -33 -29 -43 -19
-9 9 -6 18 17 42 31 33 40 36 51 19z"/>
</g>
</svg>
