<?xml version="1.0" standalone="no"?>
<!DOCTYPE svg PUBLIC "-//W3C//DTD SVG 20010904//EN"
 "http://www.w3.org/TR/2001/REC-SVG-20010904/DTD/svg10.dtd">
<svg version="1.0" xmlns="http://www.w3.org/2000/svg"
 width="64.000000pt" height="64.000000pt" viewBox="0 0 64.000000 64.000000"
 preserveAspectRatio="xMidYMid meet">

<g transform="translate(0.000000,64.000000) scale(0.100000,-0.100000)"
fill="#000000" stroke="none">
<path d="M125 621 c-83 -37 -134 -129 -120 -215 8 -44 62 -156 76 -156 14 0
10 20 -9 48 -62 90 -62 187 -2 256 64 73 140 82 204 26 40 -36 56 -37 82 -9
51 58 127 59 192 3 91 -77 89 -187 -5 -311 -13 -17 -20 -34 -15 -37 12 -7 51
42 81 101 46 91 37 174 -26 244 -68 76 -161 87 -229 27 l-35 -31 -27 26 c-52
49 -102 58 -167 28z"/>
<path d="M171 528 c-35 -48 -36 -51 -17 -67 11 -9 20 -9 35 -2 36 20 41 13 41
-54 0 -46 -4 -65 -13 -65 -23 0 -87 -61 -109 -103 -14 -27 -22 -61 -22 -93 0
-38 -4 -50 -13 -47 -7 3 -13 18 -13 34 0 17 -6 32 -15 35 -26 10 -45 -16 -45
-62 0 -40 3 -45 44 -74 l45 -30 245 0 c164 0 253 4 270 12 51 23 42 117 -14
145 -14 7 -54 13 -90 13 -51 1 -61 3 -47 11 10 6 27 9 38 6 12 -3 19 0 19 9 0
8 -6 14 -14 14 -9 0 -12 8 -8 25 2 14 8 25 13 25 5 0 9 7 9 16 0 8 -4 13 -9 9
-5 -3 -12 3 -16 12 -3 10 -12 27 -20 37 -14 19 -15 19 -35 1 l-21 -19 3 75 c3
77 7 82 50 64 11 -4 20 0 28 15 10 18 7 28 -14 61 -15 21 -33 39 -40 39 -16 0
-46 -27 -46 -41 0 -5 -27 -9 -60 -9 -33 0 -60 4 -60 9 0 16 -30 41 -50 41 -10
0 -32 -19 -49 -42z m79 -8 c9 -17 21 -20 80 -20 59 0 71 3 80 20 13 25 29 25
46 3 22 -29 17 -44 -11 -37 -46 11 -65 -18 -65 -98 0 -70 -12 -87 -40 -53 -19
23 -29 18 -47 -20 -9 -19 -20 -32 -25 -29 -4 3 -8 -1 -8 -10 0 -8 4 -16 8 -18
5 -1 12 -15 15 -29 6 -22 3 -28 -14 -32 -12 -3 -18 -10 -15 -16 4 -6 15 -7 29
-2 33 13 57 -4 57 -39 0 -27 -3 -30 -30 -30 -16 0 -30 -4 -30 -10 0 -5 14 -10
30 -10 28 0 30 -3 30 -35 0 -39 -9 -45 -27 -16 -7 11 -23 21 -35 23 -14 2 -24
11 -26 24 -2 12 -13 31 -25 42 -26 24 -77 40 -77 23 0 -6 6 -11 14 -11 24 0
65 -40 68 -68 2 -20 9 -28 28 -30 14 -2 29 -8 35 -13 5 -5 -31 -9 -93 -9 -94
0 -106 2 -142 26 -33 22 -40 32 -40 60 0 18 4 36 10 39 6 4 10 -6 10 -23 0
-31 33 -62 65 -62 18 0 17 -3 6 36 -12 44 4 120 34 160 14 19 46 45 70 60 l45
26 0 62 c0 66 -11 86 -45 86 -12 0 -26 -5 -33 -12 -18 -18 -16 7 4 37 20 30
49 32 64 5z m135 -220 c23 0 46 5 52 11 8 8 14 5 23 -12 10 -19 10 -24 -4 -34
-20 -15 -21 -29 -1 -21 25 9 17 -7 -17 -36 -27 -23 -30 -29 -19 -42 10 -12 32
-16 83 -16 60 0 72 -3 93 -25 30 -29 32 -58 4 -86 -16 -16 -30 -19 -72 -17
-50 3 -52 4 -52 32 0 16 6 31 14 34 9 3 11 0 7 -7 -4 -7 -2 -18 4 -26 14 -17
56 -20 65 -5 4 6 -5 10 -19 10 -19 0 -26 5 -26 19 0 10 -7 24 -15 31 -23 19
-55 -14 -55 -57 0 -48 -28 -45 -32 5 -4 48 -22 48 -26 -1 -2 -24 -8 -37 -18
-37 -11 0 -14 18 -14 85 0 50 -4 85 -10 85 -5 0 -10 7 -10 15 0 8 -9 15 -20
15 -11 0 -20 5 -20 10 0 6 7 10 15 10 8 0 15 4 15 9 0 5 -7 11 -15 15 -18 7
-19 28 -3 44 8 8 15 9 22 2 5 -5 28 -10 51 -10z"/>
<path d="M280 450 c0 -5 5 -10 10 -10 6 0 10 5 10 10 0 6 -4 10 -10 10 -5 0
-10 -4 -10 -10z"/>
<path d="M340 450 c0 -5 5 -10 10 -10 6 0 10 5 10 10 0 6 -4 10 -10 10 -5 0
-10 -4 -10 -10z"/>
<path d="M300 405 c0 -8 9 -15 20 -15 11 0 20 7 20 15 0 8 -9 15 -20 15 -11 0
-20 -7 -20 -15z"/>
<path d="M340 270 c0 -5 5 -10 10 -10 6 0 10 5 10 10 0 6 -4 10 -10 10 -5 0
-10 -4 -10 -10z"/>
<path d="M410 270 c0 -5 5 -10 11 -10 5 0 7 5 4 10 -3 6 -8 10 -11 10 -2 0 -4
-4 -4 -10z"/>
<path d="M375 241 c-3 -5 -1 -12 5 -16 5 -3 10 1 10 9 0 18 -6 21 -15 7z"/>
</g>
</svg>
