<?xml version="1.0" standalone="no"?>
<!DOCTYPE svg PUBLIC "-//W3C//DTD SVG 20010904//EN"
 "http://www.w3.org/TR/2001/REC-SVG-20010904/DTD/svg10.dtd">
<svg version="1.0" xmlns="http://www.w3.org/2000/svg"
 width="64.000000pt" height="64.000000pt" viewBox="0 0 64.000000 64.000000"
 preserveAspectRatio="xMidYMid meet">

<g transform="translate(0.000000,64.000000) scale(0.100000,-0.100000)"
fill="#000000" stroke="none">
<path d="M263 620 c-18 -11 -33 -27 -33 -36 0 -12 7 -10 31 10 40 34 82 34
117 -1 25 -25 25 -27 7 -33 -18 -7 -18 -9 8 -20 24 -12 29 -11 42 6 19 25 19
38 0 30 -9 -3 -19 3 -25 14 -13 24 -61 50 -92 50 -13 0 -38 -9 -55 -20z"/>
<path d="M202 520 c-16 -26 -15 -33 3 -26 9 3 19 -3 25 -14 13 -24 61 -50 92
-50 31 0 88 36 88 56 0 12 -7 10 -31 -10 -40 -34 -82 -34 -117 1 -25 25 -25
27 -7 33 19 7 19 7 -2 18 -30 16 -36 15 -51 -8z"/>
<path d="M25 405 c-14 -13 -25 -36 -25 -50 0 -33 42 -75 75 -75 31 0 75 41 75
70 0 11 7 20 15 20 8 0 15 5 15 10 0 6 -7 10 -16 10 -9 0 -27 9 -41 20 -34 27
-69 25 -98 -5z m80 -5 c4 -6 -8 -10 -30 -10 -22 0 -34 4 -30 10 3 6 17 10 30
10 13 0 27 -4 30 -10z m25 -47 c0 -23 -30 -53 -53 -53 -26 0 -57 28 -57 52 0
15 8 18 55 18 45 0 55 -3 55 -17z"/>
<path d="M515 405 c-14 -13 -25 -36 -25 -50 0 -14 11 -37 25 -50 13 -14 36
-25 50 -25 14 0 37 11 50 25 14 13 25 36 25 50 0 14 -11 37 -25 50 -13 14 -36
25 -50 25 -14 0 -37 -11 -50 -25z m87 -12 c34 -31 11 -93 -35 -93 -27 0 -57
28 -57 53 0 48 56 73 92 40z"/>
<path d="M174 317 c-3 -8 -4 -39 -2 -68 l3 -54 70 0 70 0 0 65 0 65 -68 3
c-51 2 -69 -1 -73 -11z m46 -27 c0 -15 7 -20 25 -20 18 0 25 5 25 20 0 11 7
20 15 20 11 0 15 -12 15 -50 l0 -50 -55 0 -55 0 0 50 c0 38 4 50 15 50 8 0 15
-9 15 -20z"/>
<path d="M397 304 c-15 -20 -16 -28 -7 -39 7 -8 19 -15 26 -15 8 0 14 -5 14
-11 0 -7 -10 -9 -25 -5 -30 8 -31 6 -5 -24 l20 -23 20 23 c24 28 22 41 -8 55
-12 5 -22 13 -22 17 0 11 18 10 25 -2 4 -6 11 -8 16 -5 8 6 -19 54 -31 54 -3
0 -13 -11 -23 -25z"/>
<path d="M16 238 c-12 -17 -16 -49 -16 -130 l0 -108 65 0 65 0 0 50 0 50 44 0
c47 0 70 17 60 44 -4 10 -18 16 -38 16 -36 1 -66 20 -66 44 0 50 -85 75 -114
34z m85 -14 c12 -15 11 -16 -8 -10 -21 7 -53 -14 -53 -35 0 -12 49 -59 61 -59
5 0 9 -22 9 -50 l0 -50 -45 0 -45 0 0 98 c0 63 4 102 12 110 17 17 53 15 69
-4z m19 -54 c24 -19 50 -30 69 -30 17 0 31 -4 31 -10 0 -21 -80 -10 -120 16
-40 27 -46 35 -33 47 10 10 12 9 53 -23z"/>
<path d="M530 240 c-11 -11 -20 -27 -20 -36 0 -24 -30 -43 -66 -44 -20 0 -34
-6 -38 -16 -10 -27 13 -44 60 -44 l44 0 0 -50 0 -50 65 0 65 0 0 110 c0 97 -2
112 -20 130 -11 11 -31 20 -45 20 -14 0 -34 -9 -45 -20z m78 -12 c8 -8 12 -47
12 -110 l0 -98 -45 0 -45 0 0 50 c0 28 4 50 9 50 12 0 61 47 61 59 0 21 -32
42 -53 35 -19 -6 -20 -5 -8 10 16 19 52 21 69 4z m-31 -45 c7 -19 -74 -63
-117 -63 -22 0 -40 5 -40 10 0 6 15 10 33 10 21 0 44 11 67 30 35 29 51 33 57
13z"/>
</g>
</svg>
