<?xml version="1.0" standalone="no"?>
<!DOCTYPE svg PUBLIC "-//W3C//DTD SVG 20010904//EN"
 "http://www.w3.org/TR/2001/REC-SVG-20010904/DTD/svg10.dtd">
<svg version="1.0" xmlns="http://www.w3.org/2000/svg"
 width="64.000000pt" height="64.000000pt" viewBox="0 0 64.000000 64.000000"
 preserveAspectRatio="xMidYMid meet">

<g transform="translate(0.000000,64.000000) scale(0.100000,-0.100000)"
fill="#000000" stroke="none">
<path d="M461 574 c-12 -15 -21 -31 -21 -35 0 -5 -59 -9 -131 -9 -72 0 -139
-4 -149 -10 -10 -5 -28 -26 -40 -45 -17 -27 -28 -35 -50 -35 -42 0 -79 -43
-47 -55 8 -4 13 -32 14 -86 2 -57 7 -87 18 -99 8 -9 15 -27 15 -39 0 -20 4
-22 38 -19 30 2 38 7 40 26 3 22 5 22 160 22 121 0 153 -3 144 -12 -19 -19
-14 -82 9 -112 27 -34 39 -33 39 3 0 21 6 32 20 36 28 9 40 -2 40 -37 0 -23 4
-29 16 -24 9 3 17 6 20 6 2 0 11 14 20 31 20 41 11 92 -21 118 -24 18 -25 24
-25 121 0 97 1 103 25 121 45 36 39 134 -10 153 -24 9 -25 9 -25 -24 0 -34
-22 -49 -45 -30 -8 7 -15 23 -15 36 0 31 -14 30 -39 -2z m50 -54 c28 -16 69 5
69 34 1 21 1 21 15 2 24 -32 18 -71 -15 -103 -30 -28 -30 -29 -30 -133 0 -104
0 -105 30 -133 33 -32 39 -71 15 -103 -14 -19 -14 -19 -15 1 0 25 -35 48 -61
40 -10 -4 -25 -18 -33 -32 l-13 -26 -11 32 c-13 38 -2 74 28 93 18 12 20 23
20 128 0 105 -2 116 -20 128 -31 19 -43 60 -29 95 12 28 13 28 20 9 4 -11 18
-26 30 -32z m-71 -29 c0 -10 11 -29 25 -42 13 -13 25 -33 25 -44 0 -18 -2 -17
-23 7 -12 15 -29 28 -37 29 -26 5 -59 -11 -65 -32 -6 -18 -16 -19 -136 -19
-71 0 -129 2 -129 5 0 3 9 23 20 44 35 70 37 71 186 71 125 0 134 -1 134 -19z
m1 -72 c27 -14 14 -29 -27 -29 -37 0 -44 13 -16 29 21 13 20 13 43 0z m-356
-9 c-3 -5 -17 -10 -31 -10 -14 0 -22 4 -19 10 3 6 17 10 31 10 14 0 22 -4 19
-10z m405 -55 c0 -14 -6 -34 -12 -45 -10 -15 -10 -22 0 -32 6 -6 12 -25 12
-40 l0 -28 -209 0 c-116 0 -212 4 -215 9 -4 5 -9 37 -12 70 -10 94 -17 91 227
91 l209 0 0 -25z m-360 -185 c0 -13 -7 -20 -20 -20 -13 0 -20 7 -20 20 0 13 7
20 20 20 13 0 20 -7 20 -20z"/>
<path d="M208 328 c-9 -7 -18 -22 -20 -33 -3 -19 3 -20 115 -23 99 -2 118 0
123 13 4 9 -2 25 -11 35 -15 17 -31 20 -105 20 -54 0 -92 -5 -102 -12z m200
-25 c3 -10 -21 -13 -97 -13 -93 0 -113 5 -94 24 13 12 186 2 191 -11z"/>
<path d="M92 318 c-17 -17 -15 -45 4 -52 25 -10 33 -7 44 13 7 15 6 23 -6 35
-19 19 -26 20 -42 4z m30 -23 c0 -5 -5 -11 -11 -13 -6 -2 -11 4 -11 13 0 9 5
15 11 13 6 -2 11 -8 11 -13z"/>
<path d="M165 250 c8 -13 282 -13 290 0 4 6 -47 10 -145 10 -98 0 -149 -4
-145 -10z"/>
</g>
</svg>
